<svg width="16" height="16" viewBox="0 0 16 16" fill="none" xmlns="http://www.w3.org/2000/svg">
<path fill-rule="evenodd" clip-rule="evenodd" d="M1.46967 1.46967C1.76256 1.17678 2.23744 1.17678 2.53033 1.46967L8 6.93934L13.2822 1.65717C13.5751 1.36428 14.0499 1.36428 14.3428 1.65717C14.6357 1.95006 14.6357 2.42494 14.3428 2.71783L9.06066 8L14.5303 13.4697C14.8232 13.7626 14.8232 14.2374 14.5303 14.5303C14.2374 14.8232 13.7626 14.8232 13.4697 14.5303L8 9.06066L2.71783 14.3428C2.42494 14.6357 1.95006 14.6357 1.65717 14.3428C1.36428 14.0499 1.36428 13.5751 1.65717 13.2822L6.93934 8L1.46967 2.53033C1.17678 2.23744 1.17678 1.76256 1.46967 1.46967Z" fill="white"/>
</svg>
