<svg width="20" height="18" viewBox="0 0 20 18" fill="none" xmlns="http://www.w3.org/2000/svg">
<path fill-rule="evenodd" clip-rule="evenodd" d="M0.764762 9C0.764762 8.58579 1.10055 8.25 1.51476 8.25L9.25004 8.25L9.25004 0.779884C9.25004 0.36567 9.58583 0.0298835 10 0.0298834C10.4143 0.0298833 10.75 0.36567 10.75 0.779883L10.75 8.25H18.4853C18.8995 8.25 19.2353 8.58579 19.2353 9C19.2353 9.41421 18.8995 9.75 18.4853 9.75H10.75L10.75 17.2201C10.75 17.6343 10.4143 17.9701 10 17.9701C9.58583 17.9701 9.25004 17.6343 9.25004 17.2201L9.25004 9.75L1.51476 9.75C1.10055 9.75 0.764762 9.41421 0.764762 9Z" fill="#D0D2D7"/>
</svg>
